<svg width="24" xmlns="http://www.w3.org/2000/svg" height="24" id="screenshot-59bb5dcc-556e-80ec-8006-3e8417e4e90b" viewBox="0 0 24 24" xmlns:xlink="http://www.w3.org/1999/xlink" fill="none" version="1.1"><g id="shape-59bb5dcc-556e-80ec-8006-3e8417e4e90b" width="24" height="24" rx="0" ry="0" style="fill: rgb(0, 0, 0);"><g id="shape-59bb5dcc-556e-80ec-8006-3e8417e817bb" style="display: none;"><defs><linearGradient id="fill-color-gradient-render-2-0" x1="1" y1="0.5" x2="0" y2="0.5000000000000001" gradientTransform=""><stop offset="0" stop-color="#f6ad55" stop-opacity="1"/><stop offset="1" stop-color="#f56565" stop-opacity="1"/></linearGradient><pattern patternUnits="userSpaceOnUse" x="0" y="0" width="24" height="24" id="fill-0-render-2"><g><rect width="24" height="24" style="fill: url(&quot;#fill-color-gradient-render-2-0&quot;); fill-opacity: 1;"/></g></pattern></defs><g class="fills" id="fills-59bb5dcc-556e-80ec-8006-3e8417e817bb"><rect width="24" height="24" x="0" transform="matrix(1.000000, 0.000000, 0.000000, 1.000000, 0.000000, 0.000000)" ry="0" fill="none" rx="0" y="0" color="#000"/></g></g><g id="shape-59bb5dcc-556e-80ec-8006-3e8417e905d9"><defs><linearGradient id="fill-color-gradient-render-3-0" x1="1" y1="0.5" x2="0" y2="0.5000000000000001" gradientTransform=""><stop offset="0" stop-color="#f6ad55" stop-opacity="1"/><stop offset="1" stop-color="#f56565" stop-opacity="1"/></linearGradient><pattern patternUnits="userSpaceOnUse" x="2" y="2" width="20" height="20" id="fill-0-render-3"><g><rect width="20" height="20" style="fill: url(&quot;#fill-color-gradient-render-3-0&quot;); fill-opacity: 1;"/></g></pattern></defs><g class="fills" id="fills-59bb5dcc-556e-80ec-8006-3e8417e905d9"><ellipse cx="12" cy="12" rx="10" ry="10" transform="matrix(1.000000, 0.000000, 0.000000, 1.000000, 0.000000, 0.000000)" fill="url(#fill-0-render-3)" color="#000"/></g><g color="#000" id="strokes-a32874ba-97d5-8032-8006-3e8f1023cac5-59bb5dcc-556e-80ec-8006-3e8417e905d9" class="strokes"><g class="stroke-shape"><ellipse cx="12" cy="12" rx="10" ry="10" transform="matrix(1.000000, 0.000000, 0.000000, 1.000000, 0.000000, 0.000000)" style="fill: none; stroke-width: 1.5; stroke: rgb(0, 0, 0); stroke-opacity: 1;"/></g></g></g><g id="shape-59bb5dcc-556e-80ec-8006-3e8417ea3c2d"><defs><linearGradient id="fill-color-gradient-render-4-0" x1="1" y1="0.5" x2="0" y2="0.5000000000000001" gradientTransform=""><stop offset="0" stop-color="#f6ad55" stop-opacity="1"/><stop offset="1" stop-color="#f56565" stop-opacity="1"/></linearGradient><pattern patternUnits="userSpaceOnUse" x="16" y="10" width="2" height="4" patternTransform="matrix(1.000000, 0.000000, 0.000000, 1.000000, 0.000000, 0.000000)" id="fill-0-render-4"><g><rect width="2" height="4" style="fill: url(&quot;#fill-color-gradient-render-4-0&quot;); fill-opacity: 1;"/></g></pattern></defs><g class="fills" id="fills-59bb5dcc-556e-80ec-8006-3e8417ea3c2d"><path d="M16.000,10.000L17.226,11.057C17.742,11.502,18.000,11.724,18.000,12.000C18.000,12.276,17.742,12.498,17.226,12.943L16.000,14.000" fill="none" color="#000" stroke-linecap="round" stroke-linejoin="round"/></g><g color="#000" fill="none" stroke-linecap="round" stroke-linejoin="round" id="strokes-a32874ba-97d5-8032-8006-3e8f102499e2-59bb5dcc-556e-80ec-8006-3e8417ea3c2d" class="strokes"><g class="stroke-shape"><path d="M16.000,10.000L17.226,11.057C17.742,11.502,18.000,11.724,18.000,12.000C18.000,12.276,17.742,12.498,17.226,12.943L16.000,14.000" style="fill: none; stroke-width: 1.5; stroke: rgb(0, 0, 0); stroke-opacity: 1;"/></g></g></g><g id="shape-59bb5dcc-556e-80ec-8006-3e8417eaf56a"><defs><linearGradient id="fill-color-gradient-render-5-0" x1="1" y1="0.5" x2="0" y2="0.5000000000000001" gradientTransform=""><stop offset="0" stop-color="#f6ad55" stop-opacity="1"/><stop offset="1" stop-color="#f56565" stop-opacity="1"/></linearGradient><pattern patternUnits="userSpaceOnUse" x="6" y="10" width="2" height="4" patternTransform="matrix(1.000000, 0.000000, 0.000000, 1.000000, 0.000000, 0.000000)" id="fill-0-render-5"><g><rect width="2" height="4" style="fill: url(&quot;#fill-color-gradient-render-5-0&quot;); fill-opacity: 1;"/></g></pattern></defs><g class="fills" id="fills-59bb5dcc-556e-80ec-8006-3e8417eaf56a"><path d="M8.000,10.000L6.773,11.057C6.258,11.502,6.000,11.724,6.000,12.000C6.000,12.276,6.258,12.498,6.773,12.943L8.000,14.000" fill="none" color="#000" stroke-linecap="round" stroke-linejoin="round"/></g><g color="#000" fill="none" stroke-linecap="round" stroke-linejoin="round" id="strokes-a32874ba-97d5-8032-8006-3e8f10257499-59bb5dcc-556e-80ec-8006-3e8417eaf56a" class="strokes"><g class="stroke-shape"><path d="M8.000,10.000L6.773,11.057C6.258,11.502,6.000,11.724,6.000,12.000C6.000,12.276,6.258,12.498,6.773,12.943L8.000,14.000" style="fill: none; stroke-width: 1.5; stroke: rgb(0, 0, 0); stroke-opacity: 1;"/></g></g></g><g id="shape-59bb5dcc-556e-80ec-8006-3e8417eb65bc"><defs><linearGradient id="fill-color-gradient-render-6-0" x1="1" y1="0.5" x2="0" y2="0.5000000000000001" gradientTransform=""><stop offset="0" stop-color="#f6ad55" stop-opacity="1"/><stop offset="1" stop-color="#f56565" stop-opacity="1"/></linearGradient><pattern patternUnits="userSpaceOnUse" x="11" y="9" width="2" height="6" patternTransform="matrix(1.000000, 0.000000, 0.000000, 1.000000, 0.000000, 0.000000)" id="fill-0-render-6"><g><rect width="2" height="6" style="fill: url(&quot;#fill-color-gradient-render-6-0&quot;); fill-opacity: 1;"/></g></pattern></defs><g class="fills" id="fills-59bb5dcc-556e-80ec-8006-3e8417eb65bc"><path d="M13.000,9.000L11.000,15.000" fill="none" color="#000" stroke-linecap="round" stroke-linejoin="round"/></g><g color="#000" fill="none" stroke-linecap="round" stroke-linejoin="round" id="strokes-a32874ba-97d5-8032-8006-3e8f1025db52-59bb5dcc-556e-80ec-8006-3e8417eb65bc" class="strokes"><g class="stroke-shape"><path d="M13.000,9.000L11.000,15.000" style="fill: none; stroke-width: 1.5; stroke: rgb(0, 0, 0); stroke-opacity: 1;"/></g></g></g></g></svg>